<mxfile host="app.diagrams.net" modified="2023-11-15T11:07:23.130Z" agent="Mozilla/5.0 (Windows NT 10.0; Win64; x64) AppleWebKit/537.36 (KHTML, like Gecko) Chrome/119.0.0.0 Safari/537.36" version="22.1.1" etag="437lTs5t_pmzWKR6qVtS" type="github">
  <diagram name="Page-1" id="2viWvNNaYYV4n8B3D4li">
    <mxGraphModel>
      <root>
        <mxCell id="0" />
        <mxCell id="1" parent="0" />
      </root>
    </mxGraphModel>
  </diagram>
</mxfile>
